<mxfile host="app.diagrams.net" modified="2024-03-25T04:46:39.674Z" agent="Mozilla/5.0 (Windows NT 10.0; Win64; x64) AppleWebKit/537.36 (KHTML, like Gecko) Chrome/123.0.0.0 Safari/537.36" etag="PwU6nhrGHi-wrHkaPcDE" version="24.1.0" type="github">
  <diagram id="R2lEEEUBdFMjLlhIrx00" name="Page-1">
    <mxGraphModel dx="880" dy="466" grid="1" gridSize="10" guides="1" tooltips="1" connect="1" arrows="1" fold="1" page="1" pageScale="1" pageWidth="850" pageHeight="1100" math="0" shadow="0" extFonts="Permanent Marker^https://fonts.googleapis.com/css?family=Permanent+Marker">
      <root>
        <mxCell id="0" />
        <mxCell id="1" parent="0" />
        <mxCell id="fsoGRjE2YTRlCACnc3y2-1" value="Persona" style="swimlane;childLayout=stackLayout;horizontal=1;startSize=50;horizontalStack=0;rounded=1;fontSize=14;fontStyle=0;strokeWidth=2;resizeParent=0;resizeLast=1;shadow=0;dashed=0;align=center;arcSize=4;whiteSpace=wrap;html=1;" vertex="1" parent="1">
          <mxGeometry x="370" y="50" width="160" height="120" as="geometry" />
        </mxCell>
        <mxCell id="fsoGRjE2YTRlCACnc3y2-2" value="&lt;u&gt;-ID&lt;/u&gt;&lt;div&gt;-nombre&lt;/div&gt;&lt;div&gt;-direcci贸n&lt;/div&gt;" style="align=left;strokeColor=none;fillColor=none;spacingLeft=4;fontSize=12;verticalAlign=top;resizable=0;rotatable=0;part=1;html=1;" vertex="1" parent="fsoGRjE2YTRlCACnc3y2-1">
          <mxGeometry y="50" width="160" height="70" as="geometry" />
        </mxCell>
        <mxCell id="fsoGRjE2YTRlCACnc3y2-3" value="donante" style="swimlane;childLayout=stackLayout;horizontal=1;startSize=50;horizontalStack=0;rounded=1;fontSize=14;fontStyle=0;strokeWidth=2;resizeParent=0;resizeLast=1;shadow=0;dashed=0;align=center;arcSize=4;whiteSpace=wrap;html=1;" vertex="1" parent="1">
          <mxGeometry x="370" y="200" width="160" height="120" as="geometry" />
        </mxCell>
        <mxCell id="fsoGRjE2YTRlCACnc3y2-4" value="&lt;u&gt;-&lt;/u&gt;telefono" style="align=left;strokeColor=none;fillColor=none;spacingLeft=4;fontSize=12;verticalAlign=top;resizable=0;rotatable=0;part=1;html=1;" vertex="1" parent="fsoGRjE2YTRlCACnc3y2-3">
          <mxGeometry y="50" width="160" height="70" as="geometry" />
        </mxCell>
        <mxCell id="fsoGRjE2YTRlCACnc3y2-5" value="donante" style="swimlane;childLayout=stackLayout;horizontal=1;startSize=50;horizontalStack=0;rounded=1;fontSize=14;fontStyle=0;strokeWidth=2;resizeParent=0;resizeLast=1;shadow=0;dashed=0;align=center;arcSize=4;whiteSpace=wrap;html=1;" vertex="1" parent="1">
          <mxGeometry x="580" y="210" width="160" height="120" as="geometry" />
        </mxCell>
        <mxCell id="fsoGRjE2YTRlCACnc3y2-6" value="-edad&lt;div&gt;-tipo de discapacidad&lt;/div&gt;&lt;div&gt;-sexo&lt;/div&gt;" style="align=left;strokeColor=none;fillColor=none;spacingLeft=4;fontSize=12;verticalAlign=top;resizable=0;rotatable=0;part=1;html=1;" vertex="1" parent="fsoGRjE2YTRlCACnc3y2-5">
          <mxGeometry y="50" width="160" height="70" as="geometry" />
        </mxCell>
        <mxCell id="fsoGRjE2YTRlCACnc3y2-7" value="personal" style="swimlane;childLayout=stackLayout;horizontal=1;startSize=50;horizontalStack=0;rounded=1;fontSize=14;fontStyle=0;strokeWidth=2;resizeParent=0;resizeLast=1;shadow=0;dashed=0;align=center;arcSize=4;whiteSpace=wrap;html=1;" vertex="1" parent="1">
          <mxGeometry x="150" y="200" width="160" height="120" as="geometry" />
        </mxCell>
        <mxCell id="fsoGRjE2YTRlCACnc3y2-8" value="-cargo&lt;div&gt;-departamento&lt;/div&gt;" style="align=left;strokeColor=none;fillColor=none;spacingLeft=4;fontSize=12;verticalAlign=top;resizable=0;rotatable=0;part=1;html=1;" vertex="1" parent="fsoGRjE2YTRlCACnc3y2-7">
          <mxGeometry y="50" width="160" height="70" as="geometry" />
        </mxCell>
        <mxCell id="fsoGRjE2YTRlCACnc3y2-9" value="donativo" style="swimlane;childLayout=stackLayout;horizontal=1;startSize=50;horizontalStack=0;rounded=1;fontSize=14;fontStyle=0;strokeWidth=2;resizeParent=0;resizeLast=1;shadow=0;dashed=0;align=center;arcSize=4;whiteSpace=wrap;html=1;" vertex="1" parent="1">
          <mxGeometry x="400" y="530" width="160" height="120" as="geometry" />
        </mxCell>
        <mxCell id="fsoGRjE2YTRlCACnc3y2-10" value="-fecha de entrega&lt;div&gt;-estado&lt;/div&gt;&lt;div&gt;-&lt;u&gt;ID&lt;/u&gt;&lt;/div&gt;" style="align=left;strokeColor=none;fillColor=none;spacingLeft=4;fontSize=12;verticalAlign=top;resizable=0;rotatable=0;part=1;html=1;" vertex="1" parent="fsoGRjE2YTRlCACnc3y2-9">
          <mxGeometry y="50" width="160" height="70" as="geometry" />
        </mxCell>
        <mxCell id="fsoGRjE2YTRlCACnc3y2-11" value="financiero" style="swimlane;childLayout=stackLayout;horizontal=1;startSize=50;horizontalStack=0;rounded=1;fontSize=14;fontStyle=0;strokeWidth=2;resizeParent=0;resizeLast=1;shadow=0;dashed=0;align=center;arcSize=4;whiteSpace=wrap;html=1;" vertex="1" parent="1">
          <mxGeometry x="600" y="680" width="160" height="120" as="geometry" />
        </mxCell>
        <mxCell id="fsoGRjE2YTRlCACnc3y2-12" value="-monto" style="align=left;strokeColor=none;fillColor=none;spacingLeft=4;fontSize=12;verticalAlign=top;resizable=0;rotatable=0;part=1;html=1;" vertex="1" parent="fsoGRjE2YTRlCACnc3y2-11">
          <mxGeometry y="50" width="160" height="70" as="geometry" />
        </mxCell>
        <mxCell id="fsoGRjE2YTRlCACnc3y2-13" value="alimenticio" style="swimlane;childLayout=stackLayout;horizontal=1;startSize=50;horizontalStack=0;rounded=1;fontSize=14;fontStyle=0;strokeWidth=2;resizeParent=0;resizeLast=1;shadow=0;dashed=0;align=center;arcSize=4;whiteSpace=wrap;html=1;" vertex="1" parent="1">
          <mxGeometry x="370" y="680" width="160" height="120" as="geometry" />
        </mxCell>
        <mxCell id="fsoGRjE2YTRlCACnc3y2-14" value="-fecha de caducidad&lt;div&gt;-fecha de producci贸n&lt;span style=&quot;color: rgba(0, 0, 0, 0); font-family: monospace; font-size: 0px; background-color: initial;&quot;&gt;%3CmxGraphModel%3E%3Croot%3E%3CmxCell%20id%3D%220%22%2F%3E%3CmxCell%20id%3D%221%22%20parent%3D%220%22%2F%3E%3CmxCell%20id%3D%222%22%20value%3D%22donante%22%20style%3D%22swimlane%3BchildLayout%3DstackLayout%3Bhorizontal%3D1%3BstartSize%3D50%3BhorizontalStack%3D0%3Brounded%3D1%3BfontSize%3D14%3BfontStyle%3D0%3BstrokeWidth%3D2%3BresizeParent%3D0%3BresizeLast%3D1%3Bshadow%3D0%3Bdashed%3D0%3Balign%3Dcenter%3BarcSize%3D4%3BwhiteSpace%3Dwrap%3Bhtml%3D1%3B%22%20vertex%3D%221%22%20parent%3D%221%22%3E%3CmxGeometry%20x%3D%22580%22%20y%3D%22210%22%20width%3D%22160%22%20height%3D%22120%22%20as%3D%22geometry%22%2F%3E%3C%2FmxCell%3E%3CmxCell%20id%3D%223%22%20value%3D%22-edad%26lt%3Bdiv%26gt%3B-tipo%20de%20discapacidad%26lt%3B%2Fdiv%26gt%3B%26lt%3Bdiv%26gt%3B-sexo%26lt%3B%2Fdiv%26gt%3B%22%20style%3D%22align%3Dleft%3BstrokeColor%3Dnone%3BfillColor%3Dnone%3BspacingLeft%3D4%3BfontSize%3D12%3BverticalAlign%3Dtop%3Bresizable%3D0%3Brotatable%3D0%3Bpart%3D1%3Bhtml%3D1%3B%22%20vertex%3D%221%22%20parent%3D%222%22%3E%3CmxGeometry%20y%3D%2250%22%20width%3D%22160%22%20height%3D%2270%22%20as%3D%22geometry%22%2F%3E%3C%2FmxCell%3E%3C%2Froot%3E%3C%2FmxGraphModel%3E&lt;/span&gt;&lt;/div&gt;" style="align=left;strokeColor=none;fillColor=none;spacingLeft=4;fontSize=12;verticalAlign=top;resizable=0;rotatable=0;part=1;html=1;" vertex="1" parent="fsoGRjE2YTRlCACnc3y2-13">
          <mxGeometry y="50" width="160" height="70" as="geometry" />
        </mxCell>
        <mxCell id="fsoGRjE2YTRlCACnc3y2-15" value="pr贸tesis&amp;nbsp;" style="swimlane;childLayout=stackLayout;horizontal=1;startSize=50;horizontalStack=0;rounded=1;fontSize=14;fontStyle=0;strokeWidth=2;resizeParent=0;resizeLast=1;shadow=0;dashed=0;align=center;arcSize=4;whiteSpace=wrap;html=1;" vertex="1" parent="1">
          <mxGeometry x="140" y="680" width="160" height="120" as="geometry" />
        </mxCell>
        <mxCell id="fsoGRjE2YTRlCACnc3y2-16" value="-tipo&lt;div&gt;-especificaci贸n&lt;/div&gt;" style="align=left;strokeColor=none;fillColor=none;spacingLeft=4;fontSize=12;verticalAlign=top;resizable=0;rotatable=0;part=1;html=1;" vertex="1" parent="fsoGRjE2YTRlCACnc3y2-15">
          <mxGeometry y="50" width="160" height="70" as="geometry" />
        </mxCell>
        <mxCell id="fsoGRjE2YTRlCACnc3y2-17" value="" style="endArrow=classic;html=1;rounded=0;entryX=0.863;entryY=-0.017;entryDx=0;entryDy=0;entryPerimeter=0;exitX=0;exitY=1;exitDx=0;exitDy=0;" edge="1" parent="1" source="fsoGRjE2YTRlCACnc3y2-10" target="fsoGRjE2YTRlCACnc3y2-15">
          <mxGeometry width="50" height="50" relative="1" as="geometry">
            <mxPoint x="410" y="620" as="sourcePoint" />
            <mxPoint x="460" y="570" as="targetPoint" />
          </mxGeometry>
        </mxCell>
        <mxCell id="fsoGRjE2YTRlCACnc3y2-18" value="" style="endArrow=classic;html=1;rounded=0;exitX=0.319;exitY=1.029;exitDx=0;exitDy=0;exitPerimeter=0;" edge="1" parent="1" source="fsoGRjE2YTRlCACnc3y2-10" target="fsoGRjE2YTRlCACnc3y2-13">
          <mxGeometry width="50" height="50" relative="1" as="geometry">
            <mxPoint x="380" y="640" as="sourcePoint" />
            <mxPoint x="288" y="688" as="targetPoint" />
          </mxGeometry>
        </mxCell>
        <mxCell id="fsoGRjE2YTRlCACnc3y2-19" value="" style="endArrow=classic;html=1;rounded=0;entryX=0;entryY=0;entryDx=0;entryDy=0;exitX=1;exitY=1;exitDx=0;exitDy=0;" edge="1" parent="1" source="fsoGRjE2YTRlCACnc3y2-10" target="fsoGRjE2YTRlCACnc3y2-11">
          <mxGeometry width="50" height="50" relative="1" as="geometry">
            <mxPoint x="390" y="650" as="sourcePoint" />
            <mxPoint x="298" y="698" as="targetPoint" />
          </mxGeometry>
        </mxCell>
        <mxCell id="fsoGRjE2YTRlCACnc3y2-20" value="" style="endArrow=classic;html=1;rounded=0;entryX=0.063;entryY=-0.017;entryDx=0;entryDy=0;entryPerimeter=0;exitX=1;exitY=1;exitDx=0;exitDy=0;" edge="1" parent="1" source="fsoGRjE2YTRlCACnc3y2-2" target="fsoGRjE2YTRlCACnc3y2-5">
          <mxGeometry width="50" height="50" relative="1" as="geometry">
            <mxPoint x="410" y="320" as="sourcePoint" />
            <mxPoint x="460" y="270" as="targetPoint" />
          </mxGeometry>
        </mxCell>
        <mxCell id="fsoGRjE2YTRlCACnc3y2-21" value="" style="endArrow=classic;html=1;rounded=0;entryX=0.588;entryY=0.017;entryDx=0;entryDy=0;entryPerimeter=0;exitX=0.563;exitY=1;exitDx=0;exitDy=0;exitPerimeter=0;" edge="1" parent="1" source="fsoGRjE2YTRlCACnc3y2-2" target="fsoGRjE2YTRlCACnc3y2-3">
          <mxGeometry width="50" height="50" relative="1" as="geometry">
            <mxPoint x="410" y="320" as="sourcePoint" />
            <mxPoint x="460" y="270" as="targetPoint" />
          </mxGeometry>
        </mxCell>
        <mxCell id="fsoGRjE2YTRlCACnc3y2-22" value="" style="endArrow=classic;html=1;rounded=0;exitX=0;exitY=1;exitDx=0;exitDy=0;" edge="1" parent="1" source="fsoGRjE2YTRlCACnc3y2-2" target="fsoGRjE2YTRlCACnc3y2-7">
          <mxGeometry width="50" height="50" relative="1" as="geometry">
            <mxPoint x="410" y="320" as="sourcePoint" />
            <mxPoint x="460" y="270" as="targetPoint" />
          </mxGeometry>
        </mxCell>
        <mxCell id="fsoGRjE2YTRlCACnc3y2-23" value="donativo" style="shape=ext;margin=3;double=1;whiteSpace=wrap;html=1;align=center;" vertex="1" parent="1">
          <mxGeometry x="400" y="530" width="160" height="50" as="geometry" />
        </mxCell>
        <mxCell id="fsoGRjE2YTRlCACnc3y2-26" value="" style="edgeStyle=orthogonalEdgeStyle;rounded=0;orthogonalLoop=1;jettySize=auto;html=1;endArrow=ERoneToMany;endFill=0;" edge="1" parent="1" source="fsoGRjE2YTRlCACnc3y2-25" target="fsoGRjE2YTRlCACnc3y2-4">
          <mxGeometry relative="1" as="geometry" />
        </mxCell>
        <mxCell id="fsoGRjE2YTRlCACnc3y2-27" value="" style="edgeStyle=orthogonalEdgeStyle;rounded=0;orthogonalLoop=1;jettySize=auto;html=1;endArrow=ERoneToMany;endFill=0;" edge="1" parent="1" source="fsoGRjE2YTRlCACnc3y2-25" target="fsoGRjE2YTRlCACnc3y2-23">
          <mxGeometry relative="1" as="geometry">
            <Array as="points">
              <mxPoint x="450" y="510" />
              <mxPoint x="450" y="510" />
            </Array>
          </mxGeometry>
        </mxCell>
        <mxCell id="fsoGRjE2YTRlCACnc3y2-25" value="dona" style="shape=rhombus;double=1;perimeter=rhombusPerimeter;whiteSpace=wrap;html=1;align=center;" vertex="1" parent="1">
          <mxGeometry x="390" y="400" width="120" height="60" as="geometry" />
        </mxCell>
        <mxCell id="fsoGRjE2YTRlCACnc3y2-29" style="edgeStyle=orthogonalEdgeStyle;rounded=0;orthogonalLoop=1;jettySize=auto;html=1;entryX=0;entryY=0.25;entryDx=0;entryDy=0;endArrow=ERmany;endFill=0;" edge="1" parent="1" source="fsoGRjE2YTRlCACnc3y2-28" target="fsoGRjE2YTRlCACnc3y2-23">
          <mxGeometry relative="1" as="geometry" />
        </mxCell>
        <mxCell id="fsoGRjE2YTRlCACnc3y2-30" value="" style="edgeStyle=orthogonalEdgeStyle;rounded=0;orthogonalLoop=1;jettySize=auto;html=1;endArrow=ERmany;endFill=0;" edge="1" parent="1" source="fsoGRjE2YTRlCACnc3y2-28" target="fsoGRjE2YTRlCACnc3y2-8">
          <mxGeometry relative="1" as="geometry" />
        </mxCell>
        <mxCell id="fsoGRjE2YTRlCACnc3y2-28" value="administra" style="shape=rhombus;perimeter=rhombusPerimeter;whiteSpace=wrap;html=1;align=center;" vertex="1" parent="1">
          <mxGeometry x="170" y="390" width="120" height="60" as="geometry" />
        </mxCell>
        <mxCell id="fsoGRjE2YTRlCACnc3y2-33" value="" style="edgeStyle=orthogonalEdgeStyle;rounded=0;orthogonalLoop=1;jettySize=auto;html=1;endArrow=ERoneToMany;endFill=0;" edge="1" parent="1" source="fsoGRjE2YTRlCACnc3y2-31" target="fsoGRjE2YTRlCACnc3y2-6">
          <mxGeometry relative="1" as="geometry" />
        </mxCell>
        <mxCell id="fsoGRjE2YTRlCACnc3y2-34" style="edgeStyle=orthogonalEdgeStyle;rounded=0;orthogonalLoop=1;jettySize=auto;html=1;entryX=1;entryY=0.75;entryDx=0;entryDy=0;endArrow=ERmany;endFill=0;" edge="1" parent="1" source="fsoGRjE2YTRlCACnc3y2-31" target="fsoGRjE2YTRlCACnc3y2-23">
          <mxGeometry relative="1" as="geometry">
            <Array as="points">
              <mxPoint x="670" y="568" />
              <mxPoint x="585" y="568" />
            </Array>
          </mxGeometry>
        </mxCell>
        <mxCell id="fsoGRjE2YTRlCACnc3y2-31" value="recibe" style="shape=rhombus;perimeter=rhombusPerimeter;whiteSpace=wrap;html=1;align=center;" vertex="1" parent="1">
          <mxGeometry x="600" y="390" width="120" height="60" as="geometry" />
        </mxCell>
      </root>
    </mxGraphModel>
  </diagram>
</mxfile>
